<svg width="50" height="8" viewBox="0 0 50 8" fill="none" xmlns="http://www.w3.org/2000/svg">
<path d="M0 4.71428H6.51098V6.14284H0V7.57141H8.1407V3.28572H1.62709V1.85715H8.1407V0.428589H0V4.71428Z" fill="#FFD500"/>
<path d="M8.1407 1.85709V0.428528H0L1.62709 1.85709H8.1407Z" fill="#FBBA00"/>
<path d="M0 6.14528V7.5713H8.1407L6.50571 6.14528H0Z" fill="#FBBA00"/>
<path fill-rule="evenodd" clip-rule="evenodd" d="M13.9539 7.57128H15.581V4.71416H22.0946V0.428467H13.9539V7.57128ZM15.581 1.85703H20.4649V3.28559H15.581V1.85703Z" fill="#3C3C3B"/>
<path d="M27.9053 7.57128H36.046V6.14272H29.535V1.85703H36.046V0.428467H27.9053V7.57128Z" fill="#3C3C3B"/>
<path d="M50 7.57128H41.8593V0.428467H50V1.85703H43.4864V3.28559H46.7432V4.71416H43.4864V6.14272H50V7.57128Z" fill="#3C3C3B"/>
</svg>
